<svg xmlns="http://www.w3.org/2000/svg" width="64" height="64" viewBox="0 0 512 512"><g><title>background</title><rect id="canvas_background" width="514" height="514" x="-1" y="-1" fill="none"/><g id="canvasGrid" display="none"><rect id="svg_1" width="100%" height="100%" x="0" y="0" fill="url(#gridpattern)" stroke-width="0"/></g></g><g><title>Layer 1</title><style type="text/css">.st0{fill:#2190e4}.st1{fill:#1d85d4}</style><g id="svg_8" stroke="null"><g id="svg_5" stroke="null" transform="matrix(2.5122204305161695,0,0,2.5122204305161695,-1123.5039578168125,-1123.4669114951682)"><polygon id="svg_6" stroke="null" points="549.316 448.918 549.316 448.918 549.316 448.918 456.216 482.118 470.416 605.218 549.316 648.918 549.316 648.918 549.316 648.918 628.216 605.218 642.416 482.118" class="st0"/><polygon id="svg_7" stroke="null" points="549.316 448.918 549.316 471.118 549.316 471.018 549.316 572.318 549.316 572.318 549.316 648.918 549.316 648.918 628.216 605.218 642.416 482.118 549.316 448.918" class="st1"/></g></g><g id="svg_18" stroke="null"><path id="svg_16" fill="#fff" stroke="null" d="m257.249495,192.912241c-21.146608,0 -38.35198,17.205371 -38.35198,38.35198c0,21.148462 17.205372,38.353834 38.35198,38.353834c21.148462,0 38.353834,-17.205371 38.353834,-38.353834c0,-21.146609 -17.205372,-38.35198 -38.353834,-38.35198zm0,0"/><path id="svg_17" fill="#fff" stroke="null" d="m257.249495,145.793512c-49.104179,0 -89.052304,39.948125 -89.052304,89.052304c0,22.557371 14.213294,54.428371 42.246871,94.728723c20.490353,29.45917 40.643311,52.255685 41.492364,53.21226l5.313069,5.99157l5.314923,-5.99157c0.847199,-0.956575 21.000156,-23.75309 41.492364,-53.21226c28.031723,-40.300353 42.246871,-72.171352 42.246871,-94.728723c0,-49.104179 -39.949979,-89.052304 -89.054158,-89.052304zm0,138.030422c-28.980883,0 -52.557858,-23.57883 -52.557858,-52.559713s23.576976,-52.557859 52.557858,-52.557859c28.982737,0 52.559713,23.576976 52.559713,52.557859s-23.576976,52.559713 -52.559713,52.559713zm0,0"/></g></g></svg>